<svg xmlns="http://www.w3.org/2000/svg" width="25" height="24" fill="none"><g fill="#000" clip-path="url('#clip0_12665_591')"><path d="M18.466 0H7.459A6.504 6.504 0 0 0 .962 6.497v11.007A6.504 6.504 0 0 0 7.46 24h11.007a6.504 6.504 0 0 0 6.496-6.496V6.497A6.504 6.504 0 0 0 18.466 0m-5.504 18.562A6.57 6.57 0 0 1 6.4 12a6.57 6.57 0 0 1 6.562-6.562A6.57 6.57 0 0 1 19.525 12a6.57 6.57 0 0 1-6.563 6.562m6.72-11.577c-1.07 0-1.94-.87-1.94-1.939 0-1.07.87-1.94 1.94-1.94s1.939.87 1.939 1.94-.87 1.94-1.94 1.94"/><path d="M12.963 6.845A5.16 5.16 0 0 0 7.807 12a5.16 5.16 0 0 0 5.156 5.155A5.16 5.16 0 0 0 18.118 12a5.16 5.16 0 0 0-5.155-5.155M19.682 4.514a.533.533 0 1 0 0 1.066.533.533 0 0 0 0-1.066"/></g><defs><clipPath id="clip0_12665_591"><path fill="#fff" d="M.962 0h24v24h-24z"/></clipPath></defs></svg>